<svg width="25" height="22" viewBox="0 0 25 22" fill="none" xmlns="http://www.w3.org/2000/svg">
<path d="M20.3416 0.100391C20.707 0.100426 21.034 0.427369 21.034 0.792774V3.6541H22.4149C23.6085 3.6541 24.5887 4.63427 24.5887 5.82793V19.4529C24.5887 20.6466 23.6085 21.6268 22.4149 21.6268H2.27325C1.07968 21.6267 0.100403 20.6465 0.100403 19.4529V2.57012C0.100403 1.21236 1.21237 0.100391 2.57013 0.100391H20.3416ZM1.48517 19.4529C1.48517 19.9002 1.82603 20.2419 2.27325 20.242H22.4149C22.8622 20.242 23.2039 19.9002 23.2039 19.4529V15.9988H14.7137C13.8484 15.9987 13.1326 15.2831 13.1326 14.4178V10.8631C13.1328 9.99784 13.8484 9.2822 14.7137 9.28203H23.2039V5.82793C23.2039 5.38062 22.8622 5.03887 22.4149 5.03887C16.6806 5.03887 9.24153 5.03294 2.57013 5.03887C2.18116 5.03887 1.81269 4.94443 1.48517 4.78203V19.4529ZM14.7137 10.6668C14.6506 10.6667 14.6028 10.6888 14.5711 10.7205C14.5395 10.7522 14.5175 10.8 14.5174 10.8631V14.4178C14.5174 14.4809 14.5395 14.5286 14.5711 14.5604C14.6028 14.592 14.6506 14.614 14.7137 14.6141H23.2039V10.6668H14.7137ZM17.6756 11.3553C18.3851 11.3553 18.9607 11.9309 18.9608 12.6404C18.9608 13.35 18.3852 13.9256 17.6756 13.9256C16.9662 13.9254 16.3914 13.3499 16.3914 12.6404C16.3915 11.9311 16.9663 11.3555 17.6756 11.3553ZM2.57013 1.48516C1.95872 1.48516 1.48517 1.95871 1.48517 2.57012C1.48542 3.18129 1.95888 3.6541 2.57013 3.6541H19.6492V1.48516H2.57013Z" fill="#A7A8AB" stroke="#A7A8AB" stroke-width="0.2"/>
</svg>
